<svg viewBox="0 0 150 150" fill="none" xmlns="http://www.w3.org/2000/svg">
<path d="M136.125 20.4998C136.953 19.6112 137.404 18.4359 137.382 17.2215C137.361 16.0071 136.869 14.8485 136.01 13.9896C135.151 13.1308 133.993 12.6389 132.778 12.6174C131.564 12.596 130.389 13.0468 129.5 13.8748L116.925 26.4498C111.808 22.8242 105.574 21.1254 99.3254 21.6538C93.0768 22.1823 87.2164 24.9039 82.7812 29.3373L76.1062 36.0185C74.0567 38.0695 72.9054 40.8503 72.9054 43.7498C72.9054 46.6492 74.0567 49.4301 76.1062 51.481L98.5125 73.8935C99.5281 74.9093 100.734 75.715 102.061 76.2648C103.388 76.8145 104.81 77.0974 106.247 77.0974C107.683 77.0974 109.106 76.8145 110.433 76.2648C111.76 75.715 112.966 74.9093 113.981 73.8935L120.656 67.2185C125.091 62.7841 127.813 56.9242 128.343 50.6755C128.873 44.4268 127.175 38.1922 123.55 33.0748L136.125 20.4998ZM113.719 35.9685L113.856 36.1123L113.875 36.1248L113.887 36.1435L114.031 36.281C115.628 37.8771 116.895 39.7722 117.759 41.858C118.623 43.9438 119.068 46.1795 119.068 48.4373C119.068 50.695 118.623 52.9307 117.759 55.0165C116.895 57.1023 115.628 58.9974 114.031 60.5935L107.356 67.2623C107.211 67.4078 107.039 67.5232 106.849 67.602C106.659 67.6808 106.456 67.7213 106.25 67.7213C106.044 67.7213 105.841 67.6808 105.651 67.602C105.461 67.5232 105.289 67.4078 105.144 67.2623L82.7312 44.856C82.5857 44.7109 82.4703 44.5385 82.3915 44.3486C82.3127 44.1588 82.2722 43.9553 82.2722 43.7498C82.2722 43.5442 82.3127 43.3407 82.3915 43.1509C82.4703 42.9611 82.5857 42.7887 82.7312 42.6435L89.4062 35.9685C91.0023 34.3717 92.8974 33.1049 94.9833 32.2407C97.0691 31.3764 99.3047 30.9316 101.562 30.9316C103.82 30.9316 106.056 31.3764 108.142 32.2407C110.228 33.1049 112.123 34.3717 113.719 35.9685ZM67.375 70.4998C67.8355 70.0706 68.2049 69.5531 68.4611 68.9781C68.7173 68.4031 68.8551 67.7824 68.8662 67.153C68.8773 66.5236 68.7615 65.8985 68.5257 65.3148C68.29 64.7311 67.9391 64.2009 67.494 63.7558C67.0489 63.3107 66.5186 62.9598 65.935 62.724C65.3513 62.4882 64.7261 62.3725 64.0967 62.3836C63.4673 62.3947 62.8466 62.5324 62.2716 62.7886C61.6966 63.0448 61.1791 63.4142 60.75 63.8748L50 74.6248L47.0625 71.6873C46.1836 70.8095 44.9922 70.3164 43.75 70.3164C42.5078 70.3164 41.3164 70.8095 40.4375 71.6873L29.3437 82.781C24.9094 87.2154 22.1866 93.0753 21.657 99.324C21.1274 105.573 22.8252 111.807 26.45 116.925L13.875 129.5C13.4144 129.929 13.0451 130.446 12.7889 131.021C12.5327 131.596 12.3949 132.217 12.3838 132.846C12.3727 133.476 12.4885 134.101 12.7242 134.685C12.96 135.268 13.3109 135.799 13.756 136.244C14.2011 136.689 14.7313 137.04 15.315 137.276C15.8987 137.511 16.5239 137.627 17.1532 137.616C17.7826 137.605 18.4034 137.467 18.9783 137.211C19.5533 136.955 20.0708 136.585 20.5 136.125L33.075 123.55C38.1924 127.175 44.427 128.872 50.6757 128.343C56.9244 127.813 62.7844 125.09 67.2187 120.656L78.3125 109.562C79.1903 108.683 79.6834 107.492 79.6834 106.25C79.6834 105.008 79.1903 103.816 78.3125 102.937L75.375 99.9998L86.125 89.2498C86.5855 88.8206 86.9549 88.3031 87.2111 87.7281C87.4673 87.1531 87.6051 86.5324 87.6162 85.903C87.6273 85.2736 87.5115 84.6485 87.2757 84.0648C87.04 83.4811 86.6891 82.9509 86.244 82.5058C85.7989 82.0607 85.2686 81.7098 84.685 81.474C84.1013 81.2382 83.4761 81.1225 82.8467 81.1336C82.2173 81.1447 81.5966 81.2824 81.0216 81.5386C80.4466 81.7948 79.9291 82.1642 79.5 82.6248L68.75 93.3748L56.625 81.2498L67.375 70.4998ZM46.6625 84.5435L46.6875 84.5623L46.7062 84.5873L65.4125 103.294L65.4375 103.312L65.4562 103.337L68.3687 106.25L60.5937 114.031C58.9976 115.628 57.1025 116.895 55.0167 117.759C52.9309 118.623 50.6953 119.068 48.4375 119.068C46.1797 119.068 43.9441 118.623 41.8582 117.759C39.7724 116.895 37.8773 115.628 36.2812 114.031L35.9687 113.719C34.3719 112.122 33.1051 110.227 32.2409 108.141C31.3766 106.056 30.9318 103.82 30.9318 101.562C30.9318 99.3045 31.3766 97.0688 32.2409 94.983C33.1051 92.8972 34.3719 91.0021 35.9687 89.406L43.75 81.6373L46.6625 84.5498V84.5435Z" fill="#2F80ED"/>
</svg>
