 <svg xmlns="http://www.w3.org/2000/svg" viewBox="0 0 28 28" >
    <path d="M24.5 0H3.5C1.56953 0 0 1.56953 0 3.5V19.25C0 21.1805 1.56953 22.75 3.5 22.75H8.75V27.3438C8.75 27.732 9.06719 28 9.40625 28C9.5375 28 9.67422 27.9617 9.79453 27.8687L16.625 22.75H24.5C26.4305 22.75 28 21.1805 28 19.25V3.5C28 1.56953 26.4305 0 24.5 0ZM25.375 19.25C25.375 19.7313 24.9813 20.125 24.5 20.125H15.75L15.05 20.65L11.375 23.4062V20.125H3.5C3.01875 20.125 2.625 19.7313 2.625 19.25V3.5C2.625 3.01875 3.01875 2.625 3.5 2.625H24.5C24.9813 2.625 25.375 3.01875 25.375 3.5V19.25Z"></path>
  </svg>