<svg xmlns="http://www.w3.org/2000/svg" viewBox="0 0 28 28" >
    <path d="M22.5049 25.3335H6.17157C5.86215 25.3335 5.5654 25.4564 5.34661 25.6752C5.12782 25.894 5.0049 26.1907 5.0049 26.5002C5.0049 26.8096 5.12782 27.1063 5.34661 27.3251C5.5654 27.5439 5.86215 27.6668 6.17157 27.6668H22.5049C22.8143 27.6668 23.1111 27.5439 23.3299 27.3251C23.5487 27.1063 23.6716 26.8096 23.6716 26.5002C23.6716 26.1907 23.5487 25.894 23.3299 25.6752C23.1111 25.4564 22.8143 25.3335 22.5049 25.3335ZM6.17157 23.0002H6.27657L11.1416 22.5568C11.6745 22.5037 12.1729 22.2689 12.5532 21.8918L23.0532 11.3918C23.4608 10.9613 23.681 10.3868 23.6657 9.79412C23.6504 9.20148 23.4008 8.63909 22.9716 8.23016L19.7749 5.03349C19.3577 4.64161 18.811 4.41675 18.2388 4.40169C17.6666 4.38663 17.1088 4.58242 16.6716 4.95183L6.17157 15.4518C5.79446 15.8321 5.55966 16.3306 5.50657 16.8635L5.0049 21.7285C4.98919 21.8994 5.01136 22.0716 5.06984 22.2329C5.12832 22.3943 5.22167 22.5407 5.34324 22.6618C5.45225 22.77 5.58154 22.8555 5.72368 22.9136C5.86582 22.9716 6.01803 23.001 6.17157 23.0002ZM18.1532 6.66683L21.3382 9.85183L19.0049 12.1268L15.8782 9.00016L18.1532 6.66683ZM7.7699 17.0618L14.3382 10.5402L17.4882 13.6902L10.9549 20.2235L7.4549 20.5502L7.7699 17.0618Z"></path>
</svg>